<svg xmlns="http://www.w3.org/2000/svg" xmlns:xlink="http://www.w3.org/1999/xlink" version="1.1" x="0px" y="0px" viewBox="0 0 48 60" style="enable-background:new 0 0 48 48;" xml:space="preserve"><path fill="#fff" d="M3.55,20.33l11.69,8.49l-4.46,13.74c-0.13,0.41,0.01,0.86,0.36,1.12c0.34,0.25,0.83,0.25,1.18,0L24,35.19l11.69,8.49  c0.18,0.13,0.38,0.19,0.59,0.19s0.41-0.06,0.59-0.19c0.35-0.25,0.5-0.7,0.36-1.12l-4.46-13.74l11.69-8.49  c0.35-0.25,0.5-0.7,0.36-1.12c-0.14-0.41-0.52-0.69-0.95-0.69H29.42L24.95,4.79C24.82,4.39,24.44,4.13,24,4.13s-0.82,0.26-0.95,0.65  l-4.46,13.74H4.14c-0.43,0-0.82,0.28-0.95,0.69C3.06,19.63,3.2,20.08,3.55,20.33z M19.31,20.52c0.43,0,0.82-0.28,0.95-0.69L24,8.33  l3.74,11.5c0.14,0.41,0.52,0.69,0.95,0.69h12.09L31,27.63c-0.35,0.25-0.5,0.7-0.36,1.12l3.74,11.5l-9.78-7.11  c-0.35-0.26-0.82-0.26-1.18,0l-9.78,7.11l3.74-11.5c0.13-0.41-0.01-0.86-0.36-1.12l-9.78-7.11H19.31z"/><text x="0" y="63" fill="#fff" font-size="5px" font-weight="bold" font-family="'Helvetica Neue', Helvetica, Arial-Unicode, Arial, Sans-serif">Created by thirddesign</text><text x="0" y="68" fill="#fff" font-size="5px" font-weight="bold" font-family="'Helvetica Neue', Helvetica, Arial-Unicode, Arial, Sans-serif">from the Noun Project</text></svg>